<svg width="24" height="24" viewBox="0 0 24 24" fill="none" xmlns="http://www.w3.org/2000/svg">
<path d="M21.6 24H2.4C1.76348 24 1.15303 23.7429 0.702944 23.2852C0.252856 22.8275 0 22.2067 0 21.5595V8.19624C0.0199482 7.79287 0.136535 7.40057 0.339614 7.05348C0.542692 6.70639 0.826109 6.41503 1.1652 6.20475L10.7652 0.347436C11.1381 0.120087 11.5646 0 11.9994 0C12.4342 0 12.8607 0.120087 13.2336 0.347436L22.8336 6.20475C23.5548 6.64771 23.9976 7.44089 24 8.29752V21.5595C24 22.2067 23.7471 22.8275 23.2971 23.2852C22.847 23.7429 22.2365 24 21.6 24ZM2.4 9.19564V21.5595H21.6V9.19564L12 15.7034L2.4 9.19564ZM12 2.4402L3.9792 7.3335L12 12.771L20.0196 7.3335L12 2.4402Z" fill="white"/>
</svg>
